<svg xmlns="http://www.w3.org/2000/svg" width="410" height="404" viewBox="0 0 410 404" fill="none">
  <path d="M399.641 59.5246L215.643 388.545C211.844 395.338 202.084 395.378 198.228 388.618L10.5817 59.5563C6.38087 52.1896 12.6802 43.2665 21.0281 44.7586L205.223 77.6824C206.398 77.8924 207.601 77.8904 208.776 77.6763L389.119 44.8058C397.439 43.2894 403.768 52.1434 399.625 59.5396L399.641 59.5246Z" fill="url(#paint0_linear)"/>
  <path d="M292.965 1.5744L156.801 28.2552C154.563 28.6937 152.906 30.5917 152.771 32.8786L144.395 174.33C144.198 177.713 147.258 180.346 150.51 179.498L188.42 169.692C191.967 168.769 195.172 171.725 194.443 175.342L183.18 231.775C182.422 235.533 185.907 238.762 189.56 237.652L212.947 230.597C216.6 229.486 220.085 232.717 219.327 236.475L201.21 329.237C200.229 334.092 206.983 336.748 209.492 332.444L211.019 329.839L323.806 102.602C325.603 98.8633 322.108 94.6886 318.036 95.4937L279.014 103.171C275.347 103.892 272.227 100.494 273.262 96.9053L298.731 7.86689C299.767 4.27793 296.636 0.872261 292.965 1.5744Z" fill="url(#paint1_linear)"/>
  <defs>
    <linearGradient id="paint0_linear" x1="6.00017" y1="32.9999" x2="235" y2="344" gradientUnits="userSpaceOnUse">
      <stop stop-color="#41D1FF"/>
      <stop offset="1" stop-color="#BD34FE"/>
    </linearGradient>
    <linearGradient id="paint1_linear" x1="194.651" y1="8.81818" x2="236.076" y2="292.989" gradientUnits="userSpaceOnUse">
      <stop stop-color="#FFEA83"/>
      <stop offset="0.0833333" stop-color="#FFDD35"/>
      <stop offset="1" stop-color="#FFA800"/>
    </linearGradient>
  </defs>
</svg>
